<?xml version="1.0" encoding="UTF-8"?>
<svg xmlns="http://www.w3.org/2000/svg" style="display: none;">
  <symbol id="house" viewBox="0 0 576 512">
    <path d="M570.6 244C577.2 249.8 577.8 259.1 571.1 266.6C566.2 273.2 556 273.8 549.4 267.1L512 234.1V432C512 476.2 476.2 512 432 512H144C99.82 512 64 476.2 64 432V234.1L26.59 267.1C19.96 273.8 9.849 273.2 4.003 266.6C-1.844 259.1-1.212 249.8 5.414 244L277.4 4.002C283.5-1.334 292.5-1.334 298.6 4.002L570.6 244zM144 480H208V320C208 302.3 222.3 288 240 288H336C353.7 288 368 302.3 368 320V480H432C458.5 480 480 458.5 480 432V206.7L288 37.34L96 206.7V432C96 458.5 117.5 480 144 480zM240 480H336V320H240V480z"/>
  </symbol>
  <symbol id="bolt" viewBox="0 0 384 512">
  <path d="M274.8 6.288C279.4 2.237 285.3 0 291.4 0C308.6 0 320.6 17.05 314.8 33.27L246.7 224H356.1C371.9 224 384 236.1 384 251C384 258.8 380.7 266.2 374.9 271.3L109.1 505.8C104.6 509.8 98.7 512 92.63 512C75.41 512 63.39 494.9 69.18 478.7L137.3 288H25.81C11.56 288 0 276.4 0 262.2C0 254.8 3.153 247.8 8.664 242.9L274.8 6.288zM275.4 48.65L42.08 256H160C165.2 256 170.1 258.5 173.1 262.8C176.1 267 176.8 272.5 175.1 277.4L108.6 463.6L343.8 256H224C218.8 256 213.9 253.5 210.9 249.2C207.9 244.1 207.2 239.5 208.9 234.6L275.4 48.65z"/>
  </symbol>
  <symbol id="books" viewBox="0 0 512 512">
    <path d="M510.4 435.4l-107.7-399.9C396.9 14.07 377.5 0 356.4 0c-4.111 0-8.296 .5313-12.46 1.641l-61.82 16.48c-1.281 .3438-2.375 .9922-3.592 1.445C269.7 7.758 255.8 0 240 0h-64c-12.35 0-23.49 4.797-32 12.46C135.5 4.797 124.3 0 112 0h-64C21.49 0 0 21.49 0 48v416C0 490.5 21.49 512 48 512h64c12.35 0 23.49-4.797 32-12.46C152.5 507.2 163.7 512 176 512h64c26.51 0 48-21.49 48-48V224.7l67.8 251.9C361.6 497.9 380.9 512 402.1 512c4.111 0 8.293-.5313 12.46-1.641l61.82-16.48C502 487 517.2 460.8 510.4 435.4zM32 48C32 39.18 39.18 32 48 32h64C120.8 32 128 39.18 128 48l.0011 48L32 96V48zM32 128l96 .0014v255.1L32 384V128zM112 480h-64C39.18 480 32 472.8 32 464V416l96 0L128 464C128 472.8 120.8 480 112 480zM256 464c0 8.824-7.178 16-16 16h-64C167.2 480 160 472.8 160 464l.0011-47.1L256 416V464zM256 384l-95.1 .0002V128L256 128V384zM256 96L160 96L160 48C160 39.18 167.2 32 176 32h64C248.8 32 256 39.18 256 48V96zM288 101.6V50.29c.834-.3906 1.322-.9727 2.322-1.242l61.82-16.48C353.5 32.19 354.1 32 356.4 32c7.225 0 13.57 4.828 15.43 11.74l12.4 46.07l-92.71 24.73L288 101.6zM366 391.4l-66.26-246.1l92.71-24.73l66.26 246.1L366 391.4zM477.9 455.5c-1.23 2.133-4.133 5.934-9.729 7.43l-61.82 16.48C404.1 479.8 403.5 480 402.1 480c-7.227 0-13.57-4.828-15.43-11.74l-12.4-46.07l92.71-24.73l12.44 46.22C480.9 449.1 479.1 453.4 477.9 455.5z"/>
  </symbol>
  <symbol id="chart-line" viewBox="0 0 512 512">
    <path d="M32 400C32 426.5 53.49 448 80 448H496C504.8 448 512 455.2 512 464C512 472.8 504.8 480 496 480H80C35.82 480 0 444.2 0 400V48C0 39.16 7.164 32 16 32C24.84 32 32 39.16 32 48V400zM331.3 299.3C325.1 305.6 314.9 305.6 308.7 299.3L223.1 214.6L123.3 315.3C117.1 321.6 106.9 321.6 100.7 315.3C94.44 309.1 94.44 298.9 100.7 292.7L212.7 180.7C218.9 174.4 229.1 174.4 235.3 180.7L320 265.4L452.7 132.7C458.9 126.4 469.1 126.4 475.3 132.7C481.6 138.9 481.6 149.1 475.3 155.3L331.3 299.3z"/>
  </symbol>
  <symbol id="envelope" viewBox="0 0 512 512">
    <path d="M0 128C0 92.65 28.65 64 64 64H448C483.3 64 512 92.65 512 128V384C512 419.3 483.3 448 448 448H64C28.65 448 0 419.3 0 384V128zM32 128V167.9L227.6 311.3C244.5 323.7 267.5 323.7 284.4 311.3L480 167.9V128C480 110.3 465.7 96 448 96H63.1C46.33 96 31.1 110.3 31.1 128H32zM32 207.6V384C32 401.7 46.33 416 64 416H448C465.7 416 480 401.7 480 384V207.6L303.3 337.1C275.1 357.8 236.9 357.8 208.7 337.1L32 207.6z"/>
  </symbol>
  <symbol id="pen" viewBox="0 0 512 512">
    <path d="M495 59.6C516.9 81.47 516.9 116.9 495 138.8L182.3 451.6C170.9 462.9 156.9 471.2 141.5 475.8L20.52 511.4C14.9 513 8.827 511.5 4.687 507.3C.5466 503.2-1.002 497.1 .6506 491.5L36.23 370.5C40.76 355.1 49.09 341.1 60.44 329.7L373.2 16.97C395.1-4.897 430.5-4.897 452.4 16.97L495 59.6zM341 94.4L417.6 170.1L472.4 116.2C481.8 106.8 481.8 91.6 472.4 82.23L429.8 39.6C420.4 30.23 405.2 30.23 395.8 39.6L341 94.4zM318.4 117L83.07 352.4C75.5 359.9 69.95 369.3 66.93 379.6L39.63 472.4L132.4 445.1C142.7 442.1 152.1 436.5 159.6 428.9L394.1 193.6L318.4 117z"/>
  </symbol>
  <symbol id="pencil" viewBox="0 0 512 512">
    <path d="M373.2 16.97C395.1-4.901 430.5-4.901 452.4 16.97L495 59.6C516.9 81.47 516.9 116.9 495 138.8L182.3 451.6C170.9 462.9 156.9 471.2 141.5 475.8L20.52 511.3C14.9 512.1 8.827 511.5 4.687 507.3C.5466 503.2-1.002 497.1 .6506 491.5L36.23 370.5C40.76 355.1 49.09 341.1 60.44 329.7L373.2 16.97zM429.8 39.6C420.4 30.22 405.2 30.22 395.8 39.6L341 94.4L417.6 170.1L472.4 116.2C481.8 106.8 481.8 91.6 472.4 82.23L429.8 39.6zM109.6 402.4L173.4 415.2L394.1 193.6L318.4 117L96.84 338.6L109.6 402.4zM70.51 370.2C69.08 373.2 67.88 376.3 66.93 379.5L39.63 472.4L132.4 445.1C135.7 444.1 138.8 442.9 141.8 441.5L92.86 431.7C86.53 430.4 81.58 425.5 80.31 419.1L70.51 370.2z"/>
  </symbol>
  <symbol id="tags" viewBox="0 0 512 512">
    <path d="M80 136C80 122.7 90.75 112 104 112C117.3 112 128 122.7 128 136C128 149.3 117.3 160 104 160C90.75 160 80 149.3 80 136zM204.1 32C216.8 32 229.1 37.06 238.1 46.06L410.7 218.7C435.7 243.7 435.7 284.3 410.7 309.3L277.3 442.7C252.3 467.7 211.7 467.7 186.7 442.7L14.06 270.1C5.057 261.1 0 248.8 0 236.1V80C0 53.49 21.49 32 48 32H204.1zM36.69 247.4L209.4 420.1C221.9 432.6 242.1 432.6 254.6 420.1L388.1 286.6C400.6 274.1 400.6 253.9 388.1 241.4L215.4 68.69C212.4 65.69 208.4 64 204.1 64H48C39.16 64 32 71.16 32 80V236.1C32 240.4 33.69 244.4 36.69 247.4V247.4zM308.4 36.95C314.5 30.56 324.7 30.33 331.1 36.43L472.4 171.5C525.1 221.9 525.1 306.1 472.4 356.5L347.8 475.6C341.4 481.7 331.3 481.4 325.2 475.1C319.1 468.7 319.3 458.5 325.7 452.4L450.3 333.4C489.8 295.6 489.8 232.4 450.3 194.6L308.9 59.57C302.6 53.46 302.3 43.34 308.4 36.95V36.95z"/>
  </symbol>
  <symbol id="user-lock" viewBox="0 0 640 512">
    <path d="M576 288V208c0-44.11-35.87-80-79.1-80S416 163.9 416 208V288c-35.35 0-64 28.65-64 64v96c0 35.35 28.65 64 64 64h160c35.35 0 64-28.65 64-64v-96C640 316.7 611.3 288 576 288zM448 208C448 181.5 469.5 160 496 160S544 181.5 544 208V288h-96V208zM608 448c0 17.64-14.36 32-32 32h-160c-17.64 0-32-14.36-32-32v-96c0-17.64 14.36-32 32-32h160c17.64 0 32 14.36 32 32V448zM496 376c-13.25 0-24 10.74-24 24c0 13.25 10.75 24 24 24s24-10.75 24-24C520 386.7 509.3 376 496 376zM224 256c70.7 0 128-57.31 128-128S294.7 0 224 0C153.3 0 96 57.31 96 128S153.3 256 224 256zM224 32c52.94 0 96 43.06 96 96c0 52.93-43.06 96-96 96S128 180.9 128 128C128 75.06 171.1 32 224 32zM173.3 336H274.7c9.516 0 18.76 1.062 27.71 2.971c10.27 2.191 19.9-6.207 18.1-16.67c-.0098-.1172-.0195-.2363-.0313-.3555c-.6172-7.242-5.881-13.08-13.01-14.52C297.4 305.2 286.2 304 274.7 304H173.3C77.54 304-.1152 381.6 0 477.4C.0234 496.4 15.63 512 34.66 512H304c8.836 0 16-7.164 16-16c0-8.838-7.164-16-16-16H34.66C33.21 480 32 478.8 32 477.3C31.99 399.4 95.4 336 173.3 336z"/>
  </symbol>
  <symbol id="users" viewBox="0 0 640 512">
    <path d="M319.9 320c57.41 0 103.1-46.56 103.1-104c0-57.44-46.54-104-103.1-104c-57.41 0-103.1 46.56-103.1 104C215.9 273.4 262.5 320 319.9 320zM319.9 144c39.68 0 71.96 32.3 71.96 72S359.5 288 319.9 288S247.9 255.7 247.9 216S280.2 144 319.9 144zM369.9 352H270.1C191.6 352 128 411.7 128 485.3C128 500.1 140.7 512 156.4 512h327.2C499.3 512 512 500.1 512 485.3C512 411.7 448.4 352 369.9 352zM160.2 480c3.021-53.41 51.19-96 109.1-96H369.9c58.78 0 106.9 42.59 109.1 96H160.2zM512 160c44.18 0 80-35.82 80-80S556.2 0 512 0c-44.18 0-80 35.82-80 80S467.8 160 512 160zM512 32c26.47 0 48 21.53 48 48S538.5 128 512 128s-48-21.53-48-48S485.5 32 512 32zM128 160c44.18 0 80-35.82 80-80S172.2 0 128 0C83.82 0 48 35.82 48 80S83.82 160 128 160zM128 32c26.47 0 48 21.53 48 48S154.5 128 128 128S80 106.5 80 80S101.5 32 128 32zM561.1 192H496c-11.16 0-22.08 2.5-32.47 7.438c-7.984 3.797-11.39 13.34-7.594 21.31s13.38 11.39 21.31 7.594C483.3 225.5 489.6 224 496 224h65.08C586.1 224 608 246.7 608 274.7V288c0 8.844 7.156 16 16 16S640 296.8 640 288V274.7C640 229.1 604.6 192 561.1 192zM162.8 228.3c7.938 3.797 17.53 .375 21.31-7.594c3.797-7.969 .3906-17.52-7.594-21.31C166.1 194.5 155.2 192 144 192H78.92C35.41 192 0 229.1 0 274.7V288c0 8.844 7.156 16 16 16S32 296.8 32 288V274.7C32 246.7 53.05 224 78.92 224H144C150.4 224 156.7 225.5 162.8 228.3z"/>
  </symbol>
</svg>
