<?xml version="1.0" encoding="UTF-8"?>
<svg xmlns="http://www.w3.org/2000/svg" style="display: none;">
  <symbol id="house" viewBox="0 0 576 512">
    <path d="M570.6 244C577.2 249.8 577.8 259.1 571.1 266.6C566.2 273.2 556 273.8 549.4 267.1L512 234.1V432C512 476.2 476.2 512 432 512H144C99.82 512 64 476.2 64 432V234.1L26.59 267.1C19.96 273.8 9.849 273.2 4.003 266.6C-1.844 259.1-1.212 249.8 5.414 244L277.4 4.002C283.5-1.334 292.5-1.334 298.6 4.002L570.6 244zM144 480H208V320C208 302.3 222.3 288 240 288H336C353.7 288 368 302.3 368 320V480H432C458.5 480 480 458.5 480 432V206.7L288 37.34L96 206.7V432C96 458.5 117.5 480 144 480zM240 480H336V320H240V480z"/>
  </symbol>
  <symbol id="envelope" viewBox="0 0 512 512">
    <path d="M0 128C0 92.65 28.65 64 64 64H448C483.3 64 512 92.65 512 128V384C512 419.3 483.3 448 448 448H64C28.65 448 0 419.3 0 384V128zM32 128V167.9L227.6 311.3C244.5 323.7 267.5 323.7 284.4 311.3L480 167.9V128C480 110.3 465.7 96 448 96H63.1C46.33 96 31.1 110.3 31.1 128H32zM32 207.6V384C32 401.7 46.33 416 64 416H448C465.7 416 480 401.7 480 384V207.6L303.3 337.1C275.1 357.8 236.9 357.8 208.7 337.1L32 207.6z"/>
  </symbol>
  <symbol id="user-lock" viewBox="0 0 640 512">
    <path d="M576 288V208c0-44.11-35.87-80-79.1-80S416 163.9 416 208V288c-35.35 0-64 28.65-64 64v96c0 35.35 28.65 64 64 64h160c35.35 0 64-28.65 64-64v-96C640 316.7 611.3 288 576 288zM448 208C448 181.5 469.5 160 496 160S544 181.5 544 208V288h-96V208zM608 448c0 17.64-14.36 32-32 32h-160c-17.64 0-32-14.36-32-32v-96c0-17.64 14.36-32 32-32h160c17.64 0 32 14.36 32 32V448zM496 376c-13.25 0-24 10.74-24 24c0 13.25 10.75 24 24 24s24-10.75 24-24C520 386.7 509.3 376 496 376zM224 256c70.7 0 128-57.31 128-128S294.7 0 224 0C153.3 0 96 57.31 96 128S153.3 256 224 256zM224 32c52.94 0 96 43.06 96 96c0 52.93-43.06 96-96 96S128 180.9 128 128C128 75.06 171.1 32 224 32zM173.3 336H274.7c9.516 0 18.76 1.062 27.71 2.971c10.27 2.191 19.9-6.207 18.1-16.67c-.0098-.1172-.0195-.2363-.0313-.3555c-.6172-7.242-5.881-13.08-13.01-14.52C297.4 305.2 286.2 304 274.7 304H173.3C77.54 304-.1152 381.6 0 477.4C.0234 496.4 15.63 512 34.66 512H304c8.836 0 16-7.164 16-16c0-8.838-7.164-16-16-16H34.66C33.21 480 32 478.8 32 477.3C31.99 399.4 95.4 336 173.3 336z"/>
  </symbol>
  <symbol id="tags" viewBox="0 0 512 512">
    <path d="M80 136C80 122.7 90.75 112 104 112C117.3 112 128 122.7 128 136C128 149.3 117.3 160 104 160C90.75 160 80 149.3 80 136zM204.1 32C216.8 32 229.1 37.06 238.1 46.06L410.7 218.7C435.7 243.7 435.7 284.3 410.7 309.3L277.3 442.7C252.3 467.7 211.7 467.7 186.7 442.7L14.06 270.1C5.057 261.1 0 248.8 0 236.1V80C0 53.49 21.49 32 48 32H204.1zM36.69 247.4L209.4 420.1C221.9 432.6 242.1 432.6 254.6 420.1L388.1 286.6C400.6 274.1 400.6 253.9 388.1 241.4L215.4 68.69C212.4 65.69 208.4 64 204.1 64H48C39.16 64 32 71.16 32 80V236.1C32 240.4 33.69 244.4 36.69 247.4V247.4zM308.4 36.95C314.5 30.56 324.7 30.33 331.1 36.43L472.4 171.5C525.1 221.9 525.1 306.1 472.4 356.5L347.8 475.6C341.4 481.7 331.3 481.4 325.2 475.1C319.1 468.7 319.3 458.5 325.7 452.4L450.3 333.4C489.8 295.6 489.8 232.4 450.3 194.6L308.9 59.57C302.6 53.46 302.3 43.34 308.4 36.95V36.95z"/>
  </symbol>
</svg>
