<?xml version="1.0" encoding="UTF-8"?>
<svg xmlns="http://www.w3.org/2000/svg" style="display: none;">
  <symbol id="house" viewBox="0 0 576 512">
    <path d="M570.6 244C577.2 249.8 577.8 259.1 571.1 266.6C566.2 273.2 556 273.8 549.4 267.1L512 234.1V432C512 476.2 476.2 512 432 512H144C99.82 512 64 476.2 64 432V234.1L26.59 267.1C19.96 273.8 9.849 273.2 4.003 266.6C-1.844 259.1-1.212 249.8 5.414 244L277.4 4.002C283.5-1.334 292.5-1.334 298.6 4.002L570.6 244zM144 480H208V320C208 302.3 222.3 288 240 288H336C353.7 288 368 302.3 368 320V480H432C458.5 480 480 458.5 480 432V206.7L288 37.34L96 206.7V432C96 458.5 117.5 480 144 480zM240 480H336V320H240V480z"/>
  </symbol>
  <symbol id="envelope" viewBox="0 0 512 512">
    <path d="M0 128C0 92.65 28.65 64 64 64H448C483.3 64 512 92.65 512 128V384C512 419.3 483.3 448 448 448H64C28.65 448 0 419.3 0 384V128zM32 128V167.9L227.6 311.3C244.5 323.7 267.5 323.7 284.4 311.3L480 167.9V128C480 110.3 465.7 96 448 96H63.1C46.33 96 31.1 110.3 31.1 128H32zM32 207.6V384C32 401.7 46.33 416 64 416H448C465.7 416 480 401.7 480 384V207.6L303.3 337.1C275.1 357.8 236.9 357.8 208.7 337.1L32 207.6z"/>
  </symbol>
</svg>
