<?xml version="1.0" encoding="UTF-8"?>
<svg xmlns="http://www.w3.org/2000/svg" style="display: none;">
  <symbol id="address-card" viewBox="0 0 576 512">
    <path d="M512 80c8.8 0 16 7.2 16 16V416c0 8.8-7.2 16-16 16H64c-8.8 0-16-7.2-16-16V96c0-8.8 7.2-16 16-16H512zM64 32C28.7 32 0 60.7 0 96V416c0 35.3 28.7 64 64 64H512c35.3 0 64-28.7 64-64V96c0-35.3-28.7-64-64-64H64zM208 256a64 64 0 1 0 0-128 64 64 0 1 0 0 128zm-32 32c-44.2 0-80 35.8-80 80c0 8.8 7.2 16 16 16H304c8.8 0 16-7.2 16-16c0-44.2-35.8-80-80-80H176zM376 144c-13.3 0-24 10.7-24 24s10.7 24 24 24h80c13.3 0 24-10.7 24-24s-10.7-24-24-24H376zm0 96c-13.3 0-24 10.7-24 24s10.7 24 24 24h80c13.3 0 24-10.7 24-24s-10.7-24-24-24H376z"/>
  </symbol>
  <symbol id="at" viewBox="0 0 512 512">
    <path d="M263.4 16.12C198.2 14.06 136.2 38.14 89.31 83.67C42.03 129.5 16 191.2 16 257.2c0 118.6 87.89 221.1 204.5 238.5C221.7 495.9 222.8 496 224 496c11.69 0 21.92-8.547 23.7-20.45c1.953-13.11-7.078-25.33-20.19-27.28C134.3 434.3 64 352.2 64 257.2c0-52.94 20.86-102.3 58.73-139.1c37.53-36.41 86.25-55.83 139.2-54.03C364.5 67.2 448 157.9 448 266.3v19.05c0 24.45-19.73 44.36-44 44.36S360 309.8 360 285.3V168.7c0-13.25-10.75-23.1-24-23.1c-11.92 0-21.38 8.855-23.24 20.25C294.4 151.9 272.2 144 248 144c-61.75 0-112 50.25-112 111.1s50.25 111.1 112 111.1c30.75 0 58.62-12.48 78.88-32.62c16.41 25.4 44.77 42.32 77.12 42.32c50.73 0 92-41.44 92-92.36V266.3C496 132.2 391.6 19.1 263.4 16.12zM248 320c-35.3 0-64-28.7-64-63.1c0-35.29 28.7-63.1 64-63.1s64 28.7 64 63.1C312 291.3 283.3 320 248 320z"/>
  </symbol>
  <symbol id="box-archived" viewBox="0 0 512 512">
    <path d="M464 32h-416C21.49 32 0 53.49 0 80v64C0 161.6 14.4 176 31.1 176L32 416c0 35.35 28.65 64 64 64h320c35.35 0 64-28.65 64-64V176c17.6 0 32-14.4 32-31.1V80C512 53.49 490.5 32 464 32zM416 432H96c-8.837 0-16-7.163-16-16V176h352V416C432 424.8 424.8 432 416 432zM464 128h-416V80h416V128zM183.1 272h144C341.3 272 352 261.3 352 248C352 234.7 341.3 224 328 224H183.1C170.7 224 160 234.7 160 247.1C160 261.3 170.7 272 183.1 272z"/>
  </symbol>
  <symbol id="box-open" viewBox="0 0 640 512">
    <path d="M17.24 125.5L58.94 42.12C61.97 36.06 68.5 32.56 75.23 33.4L320 63.1L236.6 202.1C229.2 215.4 214.3 221.2 200.4 217.3L37.07 170.6C17.81 165.1 8.283 143.4 17.24 125.5V125.5zM320 63.1L564.8 33.4C571.5 32.56 578 36.06 581.1 42.12L622.8 125.5C631.7 143.4 622.2 165.1 602.9 170.6L439.6 217.3C425.7 221.2 410.8 215.4 403.4 202.1L320 63.1zM576 211.6V378.5C576 400.5 561 419.7 539.6 425.1L335.5 476.1C325.3 478.7 314.7 478.7 304.5 476.1L100.4 425.1C78.99 419.7 64 400.5 64 378.5V211.6L112 225.3V378.5L296 424.5V184C296 170.7 306.7 160 320 160C333.3 160 344 170.7 344 184V424.5L528 378.5V225.3L576 211.6zM318.9 128H321.1z"/>
  </symbol>
  <symbol id="click" viewBox="0 0 48 48">
    <g stroke="currentColor" stroke-linecap="round" stroke-linejoin="round" stroke-width="4">
      <path d="M24 4v8"/>
      <path d="m22 22l20 4l-6 4l6 6l-6 6l-6-6l-4 6z" clip-rule="evenodd"/>
      <path d="m38.142 9.858l-5.657 5.657M9.858 38.142l5.657-5.657M4 24h8M9.858 9.858l5.657 5.657"/>
    </g>
  </symbol>
  <symbol id="clipboard" viewBox="0 0 384 512">
    <path d="M280 64h40c35.3 0 64 28.7 64 64V448c0 35.3-28.7 64-64 64H64c-35.3 0-64-28.7-64-64V128C0 92.7 28.7 64 64 64h40 9.6C121 27.5 153.3 0 192 0s71 27.5 78.4 64H280zM64 112c-8.8 0-16 7.2-16 16V448c0 8.8 7.2 16 16 16H320c8.8 0 16-7.2 16-16V128c0-8.8-7.2-16-16-16H304v24c0 13.3-10.7 24-24 24H192 104c-13.3 0-24-10.7-24-24V112H64zm128-8a24 24 0 1 0 0-48 24 24 0 1 0 0 48z"/>
  </symbol>
  <symbol id="face-smile" viewBox="0 0 512 512">
    <path d="M256 352C293.2 352 319.2 334.5 334.4 318.1C343.3 308.4 358.5 307.7 368.3 316.7C378 325.7 378.6 340.9 369.6 350.6C347.7 374.5 309.7 400 256 400C202.3 400 164.3 374.5 142.4 350.6C133.4 340.9 133.1 325.7 143.7 316.7C153.5 307.7 168.7 308.4 177.6 318.1C192.8 334.5 218.8 352 256 352zM208.4 208C208.4 225.7 194 240 176.4 240C158.7 240 144.4 225.7 144.4 208C144.4 190.3 158.7 176 176.4 176C194 176 208.4 190.3 208.4 208zM304.4 208C304.4 190.3 318.7 176 336.4 176C354 176 368.4 190.3 368.4 208C368.4 225.7 354 240 336.4 240C318.7 240 304.4 225.7 304.4 208zM512 256C512 397.4 397.4 512 256 512C114.6 512 0 397.4 0 256C0 114.6 114.6 0 256 0C397.4 0 512 114.6 512 256zM256 48C141.1 48 48 141.1 48 256C48 370.9 141.1 464 256 464C370.9 464 464 370.9 464 256C464 141.1 370.9 48 256 48z"/>
  </symbol>
  <symbol id="file-lines" viewBox="0 0 384 512">
    <path d="M365.3 93.38l-74.63-74.64C278.6 6.742 262.3 0 245.4 0L64-.0001c-35.35 0-64 28.65-64 64l.0065 384c0 35.34 28.65 64 64 64H320c35.2 0 64-28.8 64-64V138.6C384 121.7 377.3 105.4 365.3 93.38zM336 448c0 8.836-7.164 16-16 16H64.02c-8.838 0-16-7.164-16-16L48 64.13c0-8.836 7.164-16 16-16h160L224 128c0 17.67 14.33 32 32 32h79.1V448zM96 280C96 293.3 106.8 304 120 304h144C277.3 304 288 293.3 288 280S277.3 256 264 256h-144C106.8 256 96 266.8 96 280zM264 352h-144C106.8 352 96 362.8 96 376s10.75 24 24 24h144c13.25 0 24-10.75 24-24S277.3 352 264 352z"/>
  </symbol>
  <symbol id="file-import" viewBox="0 0 512 512">
    <path d="M263 383C258.3 387.7 256 393.8 256 400s2.344 12.28 7.031 16.97c9.375 9.375 24.56 9.375 33.94 0l80-80c9.375-9.375 9.375-24.56 0-33.94l-80-80c-9.375-9.375-24.56-9.375-33.94 0s-9.375 24.56 0 33.94L302.1 296H24C10.75 296 0 306.8 0 320s10.75 24 24 24h278.1L263 383zM493.3 93.38l-74.63-74.64C406.6 6.742 390.3 0 373.4 0H192C156.7 0 127.1 28.66 128 64l.0078 168c.002 13.26 10.75 24 24 24s24-10.75 23.1-24L176 64.13c0-8.836 7.162-16 16-16h160L352 128c0 17.67 14.33 32 32 32h79.1v288c0 8.836-7.164 16-16 16H192c-8.838 0-16-7.164-16-16l-.002-40C176 394.7 165.3 384 152 384s-24 10.75-23.1 24L128 448c.002 35.34 28.65 64 64 64H448c35.2 0 64-28.8 64-64V138.6C512 121.7 505.3 105.4 493.3 93.38z"/>
  </symbol>
  <symbol id="hand-holding" viewBox="0 0 576 512">
    <path d="M575.1 365.7c-.6251 20.49-10.5 39.48-27.13 51.97l-100.8 75.83C432.2 505.5 412.8 512 392.8 512H24C10.8 512 0 501.2 0 488s10.8-23.99 24-23.99h368.6c9.751 0 19.13-3.248 26.88-8.995l100.6-75.46c10.25-7.621 11-22.24 .8751-30.73c-7.876-6.621-20.13-6.122-28.38 0l-61.26 46.1c-7.757 5.838-17.2 8.995-26.92 8.995H269.8c-7.501 0-13.75-6.122-13.75-13.74c0-7.621 6.251-13.87 13.75-13.87h59.88c30.13 0 29-40.23 1.125-40.23H186.8c-18 0-35.51 5.747-49.51 16.49l-41.26 31.42l-72 .0601C10.8 384.1 0 373.3 0 360.1s10.8-23.99 24-23.99h55.76l28.38-21.74C130.3 297.4 158.3 288 186.7 288h144c38.63 0 69.01 29.86 69.13 67.84h3.375l60.38-45.47c19.13-14.37 57.26-24.61 88.39 1.749C567.8 325.6 576.7 345.2 575.1 365.7z"/>
  </symbol>
  <symbol id="hand-holding-heart" viewBox="0 0 576 512">
    <path d="M551.1 312.1c-31.13-26.36-69.26-16.12-88.39-1.75l-60.38 45.47h-3.375C399.7 317.9 369.3 288 330.7 288H186.7C158.3 288 130.3 297.4 108.1 314.4l-28.38 21.74H24C10.8 336.1 0 346.9 0 360.1c0 13.19 10.8 23.99 24 23.99l72-.0596l41.26-31.42c14-10.74 31.5-16.49 49.51-16.49h144c27.88 0 29 40.23-1.125 40.23H269.8c-7.5 0-13.75 6.123-13.75 13.74c0 7.619 6.252 13.87 13.75 13.87h134.6c9.711 0 19.16-3.158 26.92-8.996l61.26-46.1c8.252-6.121 20.5-6.621 28.38 0c10.12 8.496 9.375 23.11-.877 30.73l-100.6 75.46c-7.75 5.746-17.13 8.994-26.88 8.994H24C10.8 464 0 474.8 0 488C0 501.2 10.8 512 24 512h368.8c20 0 39.38-6.496 55.26-18.49l100.8-75.83c16.63-12.49 26.5-31.48 27.13-51.97C576.7 345.2 567.8 325.6 551.1 312.1zM275.2 250.5c7 7.375 18.5 7.375 25.5 0l108.1-114.2c31.5-33.13 29.72-88.1-5.65-118.7c-30.88-26.75-76.75-21.9-104.9 7.724L287.1 36.91L276.8 25.28C248.7-4.344 202.7-9.195 171.1 17.56C136.7 48.18 134.7 103.2 166.4 136.3L275.2 250.5z"/>
  </symbol>
  <symbol id="image" viewBox="0 0 512 512">
    <path d="M448 80c8.8 0 16 7.2 16 16V415.8l-5-6.5-136-176c-4.5-5.9-11.6-9.3-19-9.3s-14.4 3.4-19 9.3L202 340.7l-30.5-42.7C167 291.7 159.8 288 152 288s-15 3.7-19.5 10.1l-80 112L48 416.3l0-.3V96c0-8.8 7.2-16 16-16H448zM64 32C28.7 32 0 60.7 0 96V416c0 35.3 28.7 64 64 64H448c35.3 0 64-28.7 64-64V96c0-35.3-28.7-64-64-64H64zm80 192a48 48 0 1 0 0-96 48 48 0 1 0 0 96z"/>
  </symbol>
  <symbol id="message" viewBox="0 0 512 512">
    <path d="M447.1 0h-384c-35.25 0-64 28.75-64 63.1v287.1c0 35.25 28.75 63.1 64 63.1h96v83.98c0 9.836 11.02 15.55 19.12 9.7l124.9-93.68h144c35.25 0 64-28.75 64-63.1V63.1C511.1 28.75 483.2 0 447.1 0zM464 352c0 8.75-7.25 16-16 16h-160l-80 60v-60H64c-8.75 0-16-7.25-16-16V64c0-8.75 7.25-16 16-16h384c8.75 0 16 7.25 16 16V352z"/>
  </symbol>
  <symbol id="money-check-dollar" viewBox="0 0 576 512">
    <path d="M456 272C469.3 272 480 282.7 480 296C480 309.3 469.3 320 456 320H280C266.7 320 256 309.3 256 296C256 282.7 266.7 272 280 272H456zM256 200C256 186.7 266.7 176 280 176H456C469.3 176 480 186.7 480 200C480 213.3 469.3 224 456 224H280C266.7 224 256 213.3 256 200zM180.1 166.3C186.7 167.5 196.7 169.5 201.1 170.7C211.8 173.5 218.2 184.5 215.3 195.1C212.5 205.8 201.5 212.2 190.9 209.3C187 208.3 173.5 205.7 169.1 204.1C156.9 203.1 146.1 204.7 140.5 207.6C134.2 210.4 132.7 213.7 132.3 215.7C131.7 219.1 132.3 220.3 132.5 220.7C132.7 221.2 133.5 222.4 136.1 224.2C142.2 228.4 151.8 231.4 165.1 235.7L166.8 235.9C178.9 239.6 195.1 244.4 207.2 253.3C213.9 258.1 220.2 264.7 224.1 273.7C228.1 282.8 228.9 292.8 227.1 303.2C223.8 322.2 211.2 335.2 195.4 341.9C190.6 343.1 185.4 345.5 180.1 346.5V352C180.1 363.1 171.1 372.1 159.1 372.1C148.9 372.1 139.9 363.1 139.9 352V345.6C130.4 343.4 117.1 339.2 110.1 336.5C108.4 335.9 106.9 335.4 105.7 334.1C95.2 331.5 89.53 320.2 93.02 309.7C96.51 299.2 107.8 293.5 118.3 297C120.3 297.7 122.5 298.4 124.7 299.2C134.2 302.4 144.9 306 150.9 307C163.7 309 173.6 307.7 179.7 305.1C185.2 302.8 187.1 299.8 187.7 296.3C188.4 292.3 187.8 290.5 187.4 289.7C187.1 288.8 186.2 287.4 183.7 285.6C177.8 281.3 168.4 278.2 154.4 273.9L152.2 273.3C140.5 269.8 125.2 265.2 113.6 257.3C107 252.8 100.5 246.6 96.32 237.8C92.08 228.9 91.15 219 92.91 208.8C96.07 190.5 109.1 177.9 124 171.1C128.1 168.9 134.3 167.2 139.9 166V159.1C139.9 148.9 148.9 139.9 160 139.9C171.1 139.9 180.1 148.9 180.1 159.1L180.1 166.3zM0 128C0 92.65 28.65 64 64 64H512C547.3 64 576 92.65 576 128V384C576 419.3 547.3 448 512 448H64C28.65 448 0 419.3 0 384V128zM48 128V384C48 392.8 55.16 400 64 400H512C520.8 400 528 392.8 528 384V128C528 119.2 520.8 112 512 112H64C55.16 112 48 119.2 48 128z"/>
  </symbol>
  <symbol id="user-group" viewBox="0 0 640 512">
    <path d="M224 256c70.7 0 128-57.31 128-128S294.7 0 224 0C153.3 0 96 57.31 96 128S153.3 256 224 256zM224 48c44.11 0 80 35.89 80 80c0 44.11-35.89 80-80 80S144 172.1 144 128C144 83.89 179.9 48 224 48zM274.7 304H173.3c-95.73 0-173.3 77.6-173.3 173.3C0 496.5 15.52 512 34.66 512H413.3C432.5 512 448 496.5 448 477.3C448 381.6 370.4 304 274.7 304zM48.71 464C55.38 401.1 108.7 352 173.3 352H274.7c64.61 0 117.1 49.13 124.6 112H48.71zM479.1 320h-73.85C451.2 357.7 480 414.1 480 477.3C480 490.1 476.2 501.9 470 512h138C625.7 512 640 497.6 640 479.1C640 391.6 568.4 320 479.1 320zM432 256C493.9 256 544 205.9 544 144S493.9 32 432 32c-25.11 0-48.04 8.555-66.72 22.51C376.8 76.63 384 101.4 384 128c0 35.52-11.93 68.14-31.59 94.71C372.7 243.2 400.8 256 432 256z"/>
  </symbol>
  <symbol id="user-tie" viewBox="0 0 448 512">
    <path d="M96 128C96 57.31 153.3 0 224 0C294.7 0 352 57.31 352 128C352 198.7 294.7 256 224 256C153.3 256 96 198.7 96 128zM304 128C304 83.82 268.2 48 224 48C179.8 48 144 83.82 144 128C144 172.2 179.8 208 224 208C268.2 208 304 172.2 304 128zM209.1 359.2L176 304H272L238.9 359.2L254.8 418.4L303.6 320.9C384.7 329.3 448 397.9 448 481.3C448 498.2 434.2 512 417.3 512H30.72C13.75 512 0 498.2 0 481.3C0 397.9 63.28 329.3 144.4 320.9L193.2 418.4L209.1 359.2zM329.5 376.3L285.7 464H398.7C392.6 424.2 365.7 391.1 329.5 376.3V376.3zM49.31 464H162.3L118.5 376.3C82.28 391.1 55.41 424.2 49.31 464z"/>
  </symbol>
  <symbol id="video" viewBox="0 0 576 512">
    <path d="M557.6 102.3c-11.53-7.406-25.88-8.391-38.28-2.688L416 147V128c0-35.35-28.65-64-64-64H64C28.65 64 0 92.65 0 128v256c0 35.35 28.65 64 64 64h288c35.35 0 64-28.65 64-64v-19.02l103.3 47.36c5.344 2.453 11.03 3.672 16.69 3.672c7.531 0 15.02-2.141 21.59-6.359C569.1 402.3 576 389.7 576 375.1V136C576 122.3 569.1 109.8 557.6 102.3zM368 384c0 8.822-7.178 16-16 16H64c-8.822 0-16-7.178-16-16V128c0-8.822 7.178-16 16-16h288c8.822 0 16 7.178 16 16V384zM528 363.5L416 312.2V199.8l112-51.33V363.5z"/>
  </symbol>
</svg>
