<?xml version="1.0" encoding="UTF-8"?>
<svg xmlns="http://www.w3.org/2000/svg" style="display: none;">
  <symbol id="at" viewBox="0 0 512 512">
    <path d="M263.4 16.12C198.2 14.06 136.2 38.14 89.31 83.67C42.03 129.5 16 191.2 16 257.2c0 118.6 87.89 221.1 204.5 238.5C221.7 495.9 222.8 496 224 496c11.69 0 21.92-8.547 23.7-20.45c1.953-13.11-7.078-25.33-20.19-27.28C134.3 434.3 64 352.2 64 257.2c0-52.94 20.86-102.3 58.73-139.1c37.53-36.41 86.25-55.83 139.2-54.03C364.5 67.2 448 157.9 448 266.3v19.05c0 24.45-19.73 44.36-44 44.36S360 309.8 360 285.3V168.7c0-13.25-10.75-23.1-24-23.1c-11.92 0-21.38 8.855-23.24 20.25C294.4 151.9 272.2 144 248 144c-61.75 0-112 50.25-112 111.1s50.25 111.1 112 111.1c30.75 0 58.62-12.48 78.88-32.62c16.41 25.4 44.77 42.32 77.12 42.32c50.73 0 92-41.44 92-92.36V266.3C496 132.2 391.6 19.1 263.4 16.12zM248 320c-35.3 0-64-28.7-64-63.1c0-35.29 28.7-63.1 64-63.1s64 28.7 64 63.1C312 291.3 283.3 320 248 320z"/>
  </symbol>
  <symbol id="box-archived" viewBox="0 0 512 512">
    <path d="M464 32h-416C21.49 32 0 53.49 0 80v64C0 161.6 14.4 176 31.1 176L32 416c0 35.35 28.65 64 64 64h320c35.35 0 64-28.65 64-64V176c17.6 0 32-14.4 32-31.1V80C512 53.49 490.5 32 464 32zM416 432H96c-8.837 0-16-7.163-16-16V176h352V416C432 424.8 424.8 432 416 432zM464 128h-416V80h416V128zM183.1 272h144C341.3 272 352 261.3 352 248C352 234.7 341.3 224 328 224H183.1C170.7 224 160 234.7 160 247.1C160 261.3 170.7 272 183.1 272z"/>
  </symbol>
  <symbol id="message" viewBox="0 0 512 512">
    <path d="M447.1 0h-384c-35.25 0-64 28.75-64 63.1v287.1c0 35.25 28.75 63.1 64 63.1h96v83.98c0 9.836 11.02 15.55 19.12 9.7l124.9-93.68h144c35.25 0 64-28.75 64-63.1V63.1C511.1 28.75 483.2 0 447.1 0zM464 352c0 8.75-7.25 16-16 16h-160l-80 60v-60H64c-8.75 0-16-7.25-16-16V64c0-8.75 7.25-16 16-16h384c8.75 0 16 7.25 16 16V352z"/>
  </symbol>
  <symbol id="user-group" viewBox="0 0 640 512">
    <path d="M224 256c70.7 0 128-57.31 128-128S294.7 0 224 0C153.3 0 96 57.31 96 128S153.3 256 224 256zM224 48c44.11 0 80 35.89 80 80c0 44.11-35.89 80-80 80S144 172.1 144 128C144 83.89 179.9 48 224 48zM274.7 304H173.3c-95.73 0-173.3 77.6-173.3 173.3C0 496.5 15.52 512 34.66 512H413.3C432.5 512 448 496.5 448 477.3C448 381.6 370.4 304 274.7 304zM48.71 464C55.38 401.1 108.7 352 173.3 352H274.7c64.61 0 117.1 49.13 124.6 112H48.71zM479.1 320h-73.85C451.2 357.7 480 414.1 480 477.3C480 490.1 476.2 501.9 470 512h138C625.7 512 640 497.6 640 479.1C640 391.6 568.4 320 479.1 320zM432 256C493.9 256 544 205.9 544 144S493.9 32 432 32c-25.11 0-48.04 8.555-66.72 22.51C376.8 76.63 384 101.4 384 128c0 35.52-11.93 68.14-31.59 94.71C372.7 243.2 400.8 256 432 256z"/>
  </symbol>
  <symbol id="user-tie" viewBox="0 0 448 512">
    <path d="M96 128C96 57.31 153.3 0 224 0C294.7 0 352 57.31 352 128C352 198.7 294.7 256 224 256C153.3 256 96 198.7 96 128zM304 128C304 83.82 268.2 48 224 48C179.8 48 144 83.82 144 128C144 172.2 179.8 208 224 208C268.2 208 304 172.2 304 128zM209.1 359.2L176 304H272L238.9 359.2L254.8 418.4L303.6 320.9C384.7 329.3 448 397.9 448 481.3C448 498.2 434.2 512 417.3 512H30.72C13.75 512 0 498.2 0 481.3C0 397.9 63.28 329.3 144.4 320.9L193.2 418.4L209.1 359.2zM329.5 376.3L285.7 464H398.7C392.6 424.2 365.7 391.1 329.5 376.3V376.3zM49.31 464H162.3L118.5 376.3C82.28 391.1 55.41 424.2 49.31 464z"/>
  </symbol>
</svg>
