<svg xmlns="http://www.w3.org/2000/svg" viewBox="0 0 1129 1024" fill="#00BB31">
  <path d="M430.373551 644.733341c-67.576497 36.991175-77.605333-20.766515-77.605333-20.766515l-84.667523-194.144599c-32.580588-92.254783 28.196254-41.61179 28.196255-41.61179s52.165695 38.776413 91.729713 62.404559c39.564018 23.628146 84.667523 6.930923 84.667522 6.930923l553.607459-251.035924C924.149293 81.648371 755.418078 0 564.397645 0 252.66364 0 0 217.273928 0 485.295863c0 154.160525 83.66989 291.387546 213.992241 380.308135l-23.496878 132.737673s-11.446524 38.776413 28.248761 20.792769c27.067354-12.260382 96.035286-56.18248 137.095753-82.882285a643.473173 643.473173 0 0 0 208.610275 34.392079c311.707751 0 564.450152-217.300182 564.450152-485.322117 0-77.631586-21.265331-150.957599-59.017858-216.013761-176.397236 104.226377-586.634356 346.519886-639.535149 375.424985z"/>
</svg>
